<?xml version="1.0" encoding="utf-8"?>
<!-- Generator: Adobe Illustrator 22.1.0, SVG Export Plug-In . SVG Version: 6.00 Build 0)  -->
<svg version="1.1" id="Capa_1" xmlns="http://www.w3.org/2000/svg" xmlns:xlink="http://www.w3.org/1999/xlink" x="0px" y="0px"
	 viewBox="0 0 522.5 522.5" style="enable-background:new 0 0 522.5 522.5;" xml:space="preserve">
<g>
	<g>
		<path d="M322.4,83.5l-17.5-4.9c-2.3-0.8-4.5-0.5-6.6,0.7c-2.2,1.2-3.6,3.1-4.4,5.6L188.4,453.5c-0.8,2.5-0.5,4.8,0.7,7
			c1.2,2.2,3.1,3.7,5.5,4.4l17.5,4.9c2.3,0.8,4.5,0.5,6.6-0.7c2.2-1.2,3.6-3.1,4.4-5.6L328.6,94.9c0.8-2.5,0.5-4.8-0.7-7
			C326.6,85.7,324.8,84.3,322.4,83.5z"/>
		<path d="M164.4,155.5c0-2.5-0.9-4.7-2.8-6.6l-14.1-14.3c-1.9-1.9-4.1-2.9-6.5-2.9s-4.6,1-6.5,2.9L2.8,267.7
			c-1.9,1.9-2.8,4.1-2.8,6.6s0.9,4.7,2.8,6.6l131.7,133c1.9,1.9,4,2.9,6.5,2.9s4.6-1,6.5-2.9l14.1-14.3c1.9-1.9,2.8-4.1,2.8-6.6
			c0-2.5-0.9-4.7-2.8-6.6l-111-112.2l111-112.2C163.5,160.1,164.4,157.9,164.4,155.5z"/>
		<path d="M514.2,267.7l-131.7-133c-1.9-1.9-4.1-2.9-6.5-2.9c-2.5,0-4.6,1-6.5,2.9l-14.1,14.3c-1.9,1.9-2.8,4.1-2.8,6.6
			s0.9,4.7,2.8,6.6l111,112.2l-111,112.2c-1.9,1.9-2.8,4.1-2.8,6.6c0,2.5,0.9,4.7,2.8,6.6l14.1,14.3c1.9,1.9,4.1,2.9,6.5,2.9
			c2.4,0,4.6-1,6.5-2.9l131.7-133c1.9-1.9,2.8-4.1,2.8-6.6C517,271.7,516.1,269.6,514.2,267.7z"/>
	</g>
</g>
</svg>
