<?xml version="1.0" encoding="utf-8"?>
<!-- Generator: Adobe Illustrator 22.1.0, SVG Export Plug-In . SVG Version: 6.00 Build 0)  -->
<svg version="1.1" id="Layer_1" xmlns="http://www.w3.org/2000/svg" xmlns:xlink="http://www.w3.org/1999/xlink" x="0px" y="0px"
	 viewBox="0 0 1133.9 1133.9" style="enable-background:new 0 0 1133.9 1133.9;" xml:space="preserve">
<g>
	<path d="M748.8,713c-55.3-48.8-88.4-116.2-93.2-189.8c-4.8-73.8,19.5-145.1,68.3-200.6c52.6-59.8,128.4-94.1,208.1-94.1
		c67.1,0,131.8,24.3,182.3,68.6L748.8,713z"/>
	<path d="M932,228.9c32.9,0,65.1,5.7,95.8,17.1c31.5,11.6,60.3,28.8,85.8,51L748.7,712.3c-27.7-24.5-49.8-53.6-65.7-86.7
		c-15.5-32.2-24.6-66.7-26.9-102.5c-2.3-35.8,2.2-71.2,13.5-105.1c11.7-35.1,30.1-67.1,54.7-95.2c26.7-30.4,58.9-54.1,95.6-70.3
		C855.3,236.9,893.1,228.9,932,228.9 M932,227.9c-77,0-153.7,31.9-208.5,94.3c-101.1,115.1-89.8,290.4,25.3,391.5L1115,296.9
		C1062.3,250.7,997,227.9,932,227.9L932,227.9z"/>
</g>
<g>
	<path d="M817.2,910.4c-63,0-124.6-21.8-173.6-61.3l366.6-414.3c51.1,49.6,80.9,116.1,83.8,187.5c2.9,71.7-21.7,140.9-69.3,194.7
		C972.1,876.3,896.5,910.4,817.2,910.4C817.2,910.4,817.2,910.4,817.2,910.4z"/>
	<path d="M1010.2,435.5c50.8,49.4,80.4,115.7,83.3,186.8c2.9,71.6-21.7,140.6-69.2,194.3c-26.7,30.2-58.8,53.7-95.4,69.8
		c-35.3,15.6-72.9,23.5-111.7,23.5c-31,0-61.6-5.1-90.8-15.3c-29.8-10.4-57.4-25.7-82.1-45.5L1010.2,435.5 M1010.1,434.1
		L642.9,849.2c51.1,41.4,112.8,61.7,174.3,61.7c76.7,0,153-31.6,207.8-93.6C1123.8,705.6,1116.3,536.7,1010.1,434.1L1010.1,434.1z"
		/>
</g>
<g>
	<polygon points="37.2,404.3 168.5,311.2 168.9,311.6 310.1,211.5 310.1,377.7 238.3,428.9 237.9,428.4 174.8,473.1 	"/>
	<path d="M309.6,212.4v165l-71.2,50.8l-0.4-0.5l-0.8,0.6l-62.5,44.3L38.2,404.2l130.2-92.3l0.3,0.4l0.8-0.6L309.6,212.4
		 M310.6,210.5L169,310.9l-0.3-0.4L36.3,404.3l138.6,69.4l62.9-44.6l0.4,0.5l72.5-51.7V210.5L310.6,210.5z"/>
</g>
<g>
	<polygon points="178.9,817.4 178.6,817.9 42,732.7 175.3,655.9 240.9,696.8 241.2,696.2 325.5,743.7 325.7,909.1 	"/>
	<path d="M175.2,656.5l65,40.5l0.8,0.5l0.4-0.6L325,744l0.2,164.2l-145.6-90.9l-0.8-0.5l-0.3,0.5L43,732.8L175.2,656.5 M175.3,655.3
		L41,732.7l137.7,85.8l0.3-0.5L326.2,910L326,743.4l-84.9-47.8l-0.3,0.5L175.3,655.3L175.3,655.3z"/>
</g>
<g>
	<polygon points="35.6,562.7 36.1,562.7 32.5,413.8 170,483.1 172.1,571.5 171.5,571.6 172.8,648.9 38.3,723.6 	"/>
	<path d="M33,414.6l136.4,68.8l2.1,87.7l-0.6,0l0,1l1.3,76.5L38.8,722.7l-2.7-159.6l0.5,0l0-1L33,414.6 M32,412.9l3.6,149.2l-0.5,0
		l2.7,162.2l135.5-75.2L172,572l0.6,0l-2.2-89.3L32,412.9L32,412.9z"/>
</g>
<g>
	<polygon points="336.3,743.7 408,691.7 408.4,692.3 471.3,647.4 609.1,715.9 478,809.3 477.7,808.8 336.7,909.3 	"/>
	<path d="M471.4,648l136.7,68l-130,92.6l-0.3-0.4l-0.8,0.6l-139.8,99.7l-0.4-164.4l71.1-51.5l0.4,0.5l0.8-0.6L471.4,648
		 M471.3,646.8l-62.8,44.8l-0.4-0.5l-72.3,52.4l0.4,166.9l141.4-100.8l0.3,0.4L610,715.8L471.3,646.8L471.3,646.8z"/>
</g>
<g>
	<polygon points="400.5,421.1 400.2,421.6 323.7,380.4 323.7,210 462.3,300.3 462.6,299.8 599.3,384.6 466.3,461.8 	"/>
	<path d="M324.2,211l137.4,89.5l0.9,0.6l0.3-0.5l135.6,84.1l-132.1,76.6l-65.1-40.3l-0.8-0.5L400,421l-75.8-40.9V211 M323.2,209.1
		v171.6l77.2,41.6l0.3-0.5l65.6,40.6l134-77.8l-137.9-85.5l-0.3,0.5L323.2,209.1L323.2,209.1z"/>
</g>
</svg>
